<svg id="visual" viewBox="0 0 900 600" width="900" height="600" xmlns="http://www.w3.org/2000/svg" xmlns:xlink="http://www.w3.org/1999/xlink" version="1.1"><path d="M0 449L21.5 444.3C43 439.7 86 430.3 128.8 432.8C171.7 435.3 214.3 449.7 257.2 455.5C300 461.3 343 458.7 385.8 458.2C428.7 457.7 471.3 459.3 514.2 451.8C557 444.3 600 427.7 642.8 428.7C685.7 429.7 728.3 448.3 771.2 453.8C814 459.3 857 451.7 878.5 447.8L900 444L900 601L878.5 601C857 601 814 601 771.2 601C728.3 601 685.7 601 642.8 601C600 601 557 601 514.2 601C471.3 601 428.7 601 385.8 601C343 601 300 601 257.2 601C214.3 601 171.7 601 128.8 601C86 601 43 601 21.5 601L0 601Z" fill="#c8ab37"></path><path d="M0 466L21.5 467.2C43 468.3 86 470.7 128.8 464.8C171.7 459 214.3 445 257.2 441.2C300 437.3 343 443.7 385.8 454C428.7 464.3 471.3 478.7 514.2 483.8C557 489 600 485 642.8 487.7C685.7 490.3 728.3 499.7 771.2 501.7C814 503.7 857 498.3 878.5 495.7L900 493L900 601L878.5 601C857 601 814 601 771.2 601C728.3 601 685.7 601 642.8 601C600 601 557 601 514.2 601C471.3 601 428.7 601 385.8 601C343 601 300 601 257.2 601C214.3 601 171.7 601 128.8 601C86 601 43 601 21.5 601L0 601Z" fill="#d2ba5a"></path><path d="M0 534L21.5 537.5C43 541 86 548 128.8 543.8C171.7 539.7 214.3 524.3 257.2 524.3C300 524.3 343 539.7 385.8 542.8C428.7 546 471.3 537 514.2 536.8C557 536.7 600 545.3 642.8 538.5C685.7 531.7 728.3 509.3 771.2 508.5C814 507.7 857 528.3 878.5 538.7L900 549L900 601L878.5 601C857 601 814 601 771.2 601C728.3 601 685.7 601 642.8 601C600 601 557 601 514.2 601C471.3 601 428.7 601 385.8 601C343 601 300 601 257.2 601C214.3 601 171.7 601 128.8 601C86 601 43 601 21.5 601L0 601Z" fill="#dbc87b"></path></svg>